<mxfile host="app.diagrams.net" agent="Mozilla/5.0 (Windows NT 10.0; Win64; x64) AppleWebKit/537.36 (KHTML, like Gecko) Chrome/128.0.0.0 Safari/537.36" version="24.7.7" pages="4">
  <diagram id="C5RBs43oDa-KdzZeNtuy" name="user cases">
    <mxGraphModel dx="1395" dy="615" grid="1" gridSize="10" guides="1" tooltips="1" connect="1" arrows="1" fold="1" page="1" pageScale="1" pageWidth="827" pageHeight="1169" math="0" shadow="0">
      <root>
        <mxCell id="WIyWlLk6GJQsqaUBKTNV-0" />
        <mxCell id="WIyWlLk6GJQsqaUBKTNV-1" parent="WIyWlLk6GJQsqaUBKTNV-0" />
        <mxCell id="0QGMCRXz4lvSK_JVcnAO-0" value="normal temp with mask" style="shape=umlActor;verticalLabelPosition=bottom;verticalAlign=top;html=1;" parent="WIyWlLk6GJQsqaUBKTNV-1" vertex="1">
          <mxGeometry x="64" y="160" width="30" height="60" as="geometry" />
        </mxCell>
        <mxCell id="0QGMCRXz4lvSK_JVcnAO-1" value="high temp with mask" style="shape=umlActor;verticalLabelPosition=bottom;verticalAlign=top;html=1;" parent="WIyWlLk6GJQsqaUBKTNV-1" vertex="1">
          <mxGeometry x="64" y="270" width="30" height="60" as="geometry" />
        </mxCell>
        <mxCell id="0QGMCRXz4lvSK_JVcnAO-2" value="high temp without mask" style="shape=umlActor;verticalLabelPosition=bottom;verticalAlign=top;html=1;" parent="WIyWlLk6GJQsqaUBKTNV-1" vertex="1">
          <mxGeometry x="64" y="370" width="30" height="60" as="geometry" />
        </mxCell>
        <mxCell id="0QGMCRXz4lvSK_JVcnAO-33" style="edgeStyle=orthogonalEdgeStyle;rounded=0;orthogonalLoop=1;jettySize=auto;html=1;" parent="WIyWlLk6GJQsqaUBKTNV-1" source="0QGMCRXz4lvSK_JVcnAO-3" edge="1">
          <mxGeometry relative="1" as="geometry">
            <mxPoint x="273.9999999999998" y="500" as="targetPoint" />
          </mxGeometry>
        </mxCell>
        <mxCell id="0QGMCRXz4lvSK_JVcnAO-3" value="normal temp without mask" style="shape=umlActor;verticalLabelPosition=bottom;verticalAlign=top;html=1;" parent="WIyWlLk6GJQsqaUBKTNV-1" vertex="1">
          <mxGeometry x="64" y="470" width="30" height="60" as="geometry" />
        </mxCell>
        <mxCell id="0QGMCRXz4lvSK_JVcnAO-4" value="Admin" style="shape=umlActor;verticalLabelPosition=bottom;verticalAlign=top;html=1;" parent="WIyWlLk6GJQsqaUBKTNV-1" vertex="1">
          <mxGeometry x="364" y="50" width="30" height="60" as="geometry" />
        </mxCell>
        <mxCell id="0QGMCRXz4lvSK_JVcnAO-10" value="allow pass" style="ellipse;whiteSpace=wrap;html=1;" parent="WIyWlLk6GJQsqaUBKTNV-1" vertex="1">
          <mxGeometry x="624" y="170" width="140" height="70" as="geometry" />
        </mxCell>
        <mxCell id="xtEBeBCp0FPaz9sLcxb2-2" style="edgeStyle=orthogonalEdgeStyle;rounded=0;orthogonalLoop=1;jettySize=auto;html=1;entryX=0;entryY=0.5;entryDx=0;entryDy=0;exitX=0.364;exitY=0.012;exitDx=0;exitDy=0;exitPerimeter=0;" edge="1" parent="WIyWlLk6GJQsqaUBKTNV-1" source="0QGMCRXz4lvSK_JVcnAO-24" target="xtEBeBCp0FPaz9sLcxb2-1">
          <mxGeometry relative="1" as="geometry" />
        </mxCell>
        <mxCell id="xtEBeBCp0FPaz9sLcxb2-3" style="edgeStyle=orthogonalEdgeStyle;rounded=0;orthogonalLoop=1;jettySize=auto;html=1;entryX=0;entryY=0.5;entryDx=0;entryDy=0;exitX=0.605;exitY=0;exitDx=0;exitDy=0;exitPerimeter=0;" edge="1" parent="WIyWlLk6GJQsqaUBKTNV-1" source="0QGMCRXz4lvSK_JVcnAO-24" target="xtEBeBCp0FPaz9sLcxb2-1">
          <mxGeometry relative="1" as="geometry" />
        </mxCell>
        <mxCell id="xtEBeBCp0FPaz9sLcxb2-4" style="edgeStyle=orthogonalEdgeStyle;rounded=0;orthogonalLoop=1;jettySize=auto;html=1;entryX=0;entryY=0.5;entryDx=0;entryDy=0;" edge="1" parent="WIyWlLk6GJQsqaUBKTNV-1" source="0QGMCRXz4lvSK_JVcnAO-24" target="xtEBeBCp0FPaz9sLcxb2-1">
          <mxGeometry relative="1" as="geometry">
            <Array as="points">
              <mxPoint x="554" y="500" />
              <mxPoint x="554" y="400" />
            </Array>
          </mxGeometry>
        </mxCell>
        <mxCell id="0QGMCRXz4lvSK_JVcnAO-24" value="&lt;div style=&quot;&quot;&gt;&lt;span style=&quot;background-color: initial;&quot;&gt;Smart Entry System&lt;/span&gt;&lt;/div&gt;" style="verticalAlign=top;align=center;spacingTop=8;spacingLeft=2;spacingRight=12;shape=cube;size=10;direction=south;fontStyle=4;html=1;whiteSpace=wrap;" parent="WIyWlLk6GJQsqaUBKTNV-1" vertex="1">
          <mxGeometry x="276.5" y="170" width="207.5" height="380" as="geometry" />
        </mxCell>
        <mxCell id="0QGMCRXz4lvSK_JVcnAO-26" style="edgeStyle=orthogonalEdgeStyle;rounded=0;orthogonalLoop=1;jettySize=auto;html=1;entryX=0.026;entryY=0.504;entryDx=0;entryDy=0;entryPerimeter=0;" parent="WIyWlLk6GJQsqaUBKTNV-1" source="0QGMCRXz4lvSK_JVcnAO-4" target="0QGMCRXz4lvSK_JVcnAO-24" edge="1">
          <mxGeometry relative="1" as="geometry" />
        </mxCell>
        <mxCell id="0QGMCRXz4lvSK_JVcnAO-27" value="Monitor" style="edgeLabel;html=1;align=center;verticalAlign=middle;resizable=0;points=[];" parent="0QGMCRXz4lvSK_JVcnAO-26" vertex="1" connectable="0">
          <mxGeometry x="0.0936" y="-1" relative="1" as="geometry">
            <mxPoint as="offset" />
          </mxGeometry>
        </mxCell>
        <mxCell id="0QGMCRXz4lvSK_JVcnAO-30" style="edgeStyle=orthogonalEdgeStyle;rounded=0;orthogonalLoop=1;jettySize=auto;html=1;entryX=0.053;entryY=0.988;entryDx=0;entryDy=0;entryPerimeter=0;" parent="WIyWlLk6GJQsqaUBKTNV-1" source="0QGMCRXz4lvSK_JVcnAO-0" target="0QGMCRXz4lvSK_JVcnAO-24" edge="1">
          <mxGeometry relative="1" as="geometry" />
        </mxCell>
        <mxCell id="0QGMCRXz4lvSK_JVcnAO-31" style="edgeStyle=orthogonalEdgeStyle;rounded=0;orthogonalLoop=1;jettySize=auto;html=1;" parent="WIyWlLk6GJQsqaUBKTNV-1" source="0QGMCRXz4lvSK_JVcnAO-1" edge="1">
          <mxGeometry relative="1" as="geometry">
            <mxPoint x="274" y="300" as="targetPoint" />
          </mxGeometry>
        </mxCell>
        <mxCell id="0QGMCRXz4lvSK_JVcnAO-32" style="edgeStyle=orthogonalEdgeStyle;rounded=0;orthogonalLoop=1;jettySize=auto;html=1;" parent="WIyWlLk6GJQsqaUBKTNV-1" source="0QGMCRXz4lvSK_JVcnAO-2" edge="1">
          <mxGeometry relative="1" as="geometry">
            <mxPoint x="274" y="400" as="targetPoint" />
          </mxGeometry>
        </mxCell>
        <mxCell id="xtEBeBCp0FPaz9sLcxb2-0" style="edgeStyle=orthogonalEdgeStyle;rounded=0;orthogonalLoop=1;jettySize=auto;html=1;entryX=0.043;entryY=0.414;entryDx=0;entryDy=0;entryPerimeter=0;exitX=0.076;exitY=-0.014;exitDx=0;exitDy=0;exitPerimeter=0;" edge="1" parent="WIyWlLk6GJQsqaUBKTNV-1" source="0QGMCRXz4lvSK_JVcnAO-24" target="0QGMCRXz4lvSK_JVcnAO-10">
          <mxGeometry relative="1" as="geometry" />
        </mxCell>
        <mxCell id="xtEBeBCp0FPaz9sLcxb2-1" value="not allow" style="ellipse;whiteSpace=wrap;html=1;" vertex="1" parent="WIyWlLk6GJQsqaUBKTNV-1">
          <mxGeometry x="624" y="365" width="140" height="70" as="geometry" />
        </mxCell>
      </root>
    </mxGraphModel>
  </diagram>
  <diagram id="FHRo0koj6ilt4YAGi9Yn" name="sequence diagram">
    <mxGraphModel grid="1" page="1" gridSize="10" guides="1" tooltips="1" connect="1" arrows="1" fold="1" pageScale="1" pageWidth="827" pageHeight="1169" math="0" shadow="0">
      <root>
        <mxCell id="0" />
        <mxCell id="1" parent="0" />
        <mxCell id="QjpgvyxD9soHx6lmHtPM-10" style="edgeStyle=orthogonalEdgeStyle;rounded=0;orthogonalLoop=1;jettySize=auto;html=1;curved=0;" parent="1" edge="1">
          <mxGeometry relative="1" as="geometry">
            <mxPoint x="59.928571428571445" y="240" as="sourcePoint" />
            <mxPoint x="189.5" y="240" as="targetPoint" />
          </mxGeometry>
        </mxCell>
        <mxCell id="QjpgvyxD9soHx6lmHtPM-13" value="read" style="edgeLabel;html=1;align=center;verticalAlign=middle;resizable=0;points=[];" parent="QjpgvyxD9soHx6lmHtPM-10" vertex="1" connectable="0">
          <mxGeometry x="-0.0088" relative="1" as="geometry">
            <mxPoint y="-10" as="offset" />
          </mxGeometry>
        </mxCell>
        <mxCell id="QjpgvyxD9soHx6lmHtPM-1" value="Raspberry Pi" style="shape=umlLifeline;perimeter=lifelinePerimeter;whiteSpace=wrap;html=1;container=1;dropTarget=0;collapsible=0;recursiveResize=0;outlineConnect=0;portConstraint=eastwest;newEdgeStyle={&quot;curved&quot;:0,&quot;rounded&quot;:0};" parent="1" vertex="1">
          <mxGeometry x="10" y="180" width="100" height="540" as="geometry" />
        </mxCell>
        <mxCell id="QjpgvyxD9soHx6lmHtPM-15" value="" style="html=1;points=[[0,0,0,0,5],[0,1,0,0,-5],[1,0,0,0,5],[1,1,0,0,-5]];perimeter=orthogonalPerimeter;outlineConnect=0;targetShapes=umlLifeline;portConstraint=eastwest;newEdgeStyle={&quot;curved&quot;:0,&quot;rounded&quot;:0};" parent="QjpgvyxD9soHx6lmHtPM-1" vertex="1">
          <mxGeometry x="45" y="50" width="10" height="480" as="geometry" />
        </mxCell>
        <mxCell id="QjpgvyxD9soHx6lmHtPM-20" style="edgeStyle=orthogonalEdgeStyle;rounded=0;orthogonalLoop=1;jettySize=auto;html=1;curved=0;" parent="QjpgvyxD9soHx6lmHtPM-1" target="QjpgvyxD9soHx6lmHtPM-30" edge="1">
          <mxGeometry relative="1" as="geometry">
            <mxPoint x="65" y="130" as="sourcePoint" />
            <mxPoint x="65" y="160" as="targetPoint" />
            <Array as="points">
              <mxPoint x="100" y="130" />
              <mxPoint x="100" y="210" />
            </Array>
          </mxGeometry>
        </mxCell>
        <mxCell id="QjpgvyxD9soHx6lmHtPM-21" value="is normal temp ?" style="edgeLabel;html=1;align=center;verticalAlign=middle;resizable=0;points=[];" parent="QjpgvyxD9soHx6lmHtPM-20" vertex="1" connectable="0">
          <mxGeometry x="-0.5505" relative="1" as="geometry">
            <mxPoint x="27" y="-10" as="offset" />
          </mxGeometry>
        </mxCell>
        <mxCell id="QjpgvyxD9soHx6lmHtPM-25" value="Yes" style="edgeLabel;html=1;align=center;verticalAlign=middle;resizable=0;points=[];" parent="QjpgvyxD9soHx6lmHtPM-20" vertex="1" connectable="0">
          <mxGeometry x="0.592" y="2" relative="1" as="geometry">
            <mxPoint x="14" y="-52" as="offset" />
          </mxGeometry>
        </mxCell>
        <mxCell id="QjpgvyxD9soHx6lmHtPM-30" value="" style="html=1;points=[[0,0,0,0,5],[0,1,0,0,-5],[1,0,0,0,5],[1,1,0,0,-5]];perimeter=orthogonalPerimeter;outlineConnect=0;targetShapes=umlLifeline;portConstraint=eastwest;newEdgeStyle={&quot;curved&quot;:0,&quot;rounded&quot;:0};" parent="QjpgvyxD9soHx6lmHtPM-1" vertex="1">
          <mxGeometry x="55" y="130" width="10" height="80" as="geometry" />
        </mxCell>
        <mxCell id="QjpgvyxD9soHx6lmHtPM-35" style="edgeStyle=orthogonalEdgeStyle;rounded=0;orthogonalLoop=1;jettySize=auto;html=1;curved=0;" parent="QjpgvyxD9soHx6lmHtPM-1" target="QjpgvyxD9soHx6lmHtPM-37" edge="1">
          <mxGeometry relative="1" as="geometry">
            <mxPoint x="55" y="250" as="sourcePoint" />
            <mxPoint x="70" y="330" as="targetPoint" />
            <Array as="points">
              <mxPoint x="80" y="250" />
              <mxPoint x="80" y="330" />
            </Array>
          </mxGeometry>
        </mxCell>
        <mxCell id="QjpgvyxD9soHx6lmHtPM-40" value="Process Images or Video Stream with CNN and OpenCV" style="edgeLabel;html=1;align=center;verticalAlign=middle;resizable=0;points=[];" parent="QjpgvyxD9soHx6lmHtPM-35" vertex="1" connectable="0">
          <mxGeometry x="-0.2222" relative="1" as="geometry">
            <mxPoint x="140" y="-12" as="offset" />
          </mxGeometry>
        </mxCell>
        <mxCell id="QjpgvyxD9soHx6lmHtPM-37" value="" style="html=1;points=[[0,0,0,0,5],[0,1,0,0,-5],[1,0,0,0,5],[1,1,0,0,-5]];perimeter=orthogonalPerimeter;outlineConnect=0;targetShapes=umlLifeline;portConstraint=eastwest;newEdgeStyle={&quot;curved&quot;:0,&quot;rounded&quot;:0};" parent="QjpgvyxD9soHx6lmHtPM-1" vertex="1">
          <mxGeometry x="55" y="250" width="10" height="80" as="geometry" />
        </mxCell>
        <mxCell id="QjpgvyxD9soHx6lmHtPM-2" value="IR sensor" style="shape=umlLifeline;perimeter=lifelinePerimeter;whiteSpace=wrap;html=1;container=1;dropTarget=0;collapsible=0;recursiveResize=0;outlineConnect=0;portConstraint=eastwest;newEdgeStyle={&quot;curved&quot;:0,&quot;rounded&quot;:0};" parent="1" vertex="1">
          <mxGeometry x="140" y="180" width="100" height="540" as="geometry" />
        </mxCell>
        <mxCell id="QjpgvyxD9soHx6lmHtPM-16" value="" style="html=1;points=[[0,0,0,0,5],[0,1,0,0,-5],[1,0,0,0,5],[1,1,0,0,-5]];perimeter=orthogonalPerimeter;outlineConnect=0;targetShapes=umlLifeline;portConstraint=eastwest;newEdgeStyle={&quot;curved&quot;:0,&quot;rounded&quot;:0};" parent="QjpgvyxD9soHx6lmHtPM-2" vertex="1">
          <mxGeometry x="45" y="50" width="10" height="30" as="geometry" />
        </mxCell>
        <mxCell id="QjpgvyxD9soHx6lmHtPM-32" style="edgeStyle=orthogonalEdgeStyle;rounded=0;orthogonalLoop=1;jettySize=auto;html=1;curved=0;" parent="1" edge="1">
          <mxGeometry relative="1" as="geometry">
            <mxPoint x="67.65" y="700" as="sourcePoint" />
            <mxPoint x="789.5" y="701" as="targetPoint" />
            <Array as="points">
              <mxPoint x="416" y="700" />
              <mxPoint x="416" y="701" />
            </Array>
          </mxGeometry>
        </mxCell>
        <mxCell id="QjpgvyxD9soHx6lmHtPM-33" value="Send Processed Image or VIdeo Stream through Wifi / ceullar to UI Monitor" style="edgeLabel;html=1;align=center;verticalAlign=middle;resizable=0;points=[];" parent="QjpgvyxD9soHx6lmHtPM-32" vertex="1" connectable="0">
          <mxGeometry x="-0.6818" y="-2" relative="1" as="geometry">
            <mxPoint x="317" y="-12" as="offset" />
          </mxGeometry>
        </mxCell>
        <mxCell id="QjpgvyxD9soHx6lmHtPM-3" value="Camera" style="shape=umlLifeline;perimeter=lifelinePerimeter;whiteSpace=wrap;html=1;container=1;dropTarget=0;collapsible=0;recursiveResize=0;outlineConnect=0;portConstraint=eastwest;newEdgeStyle={&quot;curved&quot;:0,&quot;rounded&quot;:0};" parent="1" vertex="1">
          <mxGeometry x="270" y="180" width="100" height="540" as="geometry" />
        </mxCell>
        <mxCell id="QjpgvyxD9soHx6lmHtPM-7" value="LED" style="shape=umlLifeline;perimeter=lifelinePerimeter;whiteSpace=wrap;html=1;container=1;dropTarget=0;collapsible=0;recursiveResize=0;outlineConnect=0;portConstraint=eastwest;newEdgeStyle={&quot;curved&quot;:0,&quot;rounded&quot;:0};" parent="1" vertex="1">
          <mxGeometry x="390" y="180" width="100" height="540" as="geometry" />
        </mxCell>
        <mxCell id="QjpgvyxD9soHx6lmHtPM-8" value="Motor" style="shape=umlLifeline;perimeter=lifelinePerimeter;whiteSpace=wrap;html=1;container=1;dropTarget=0;collapsible=0;recursiveResize=0;outlineConnect=0;portConstraint=eastwest;newEdgeStyle={&quot;curved&quot;:0,&quot;rounded&quot;:0};" parent="1" vertex="1">
          <mxGeometry x="510" y="180" width="100" height="540" as="geometry" />
        </mxCell>
        <mxCell id="QjpgvyxD9soHx6lmHtPM-22" value="return" style="html=1;verticalAlign=bottom;endArrow=open;dashed=1;endSize=8;curved=0;rounded=0;" parent="1" edge="1">
          <mxGeometry relative="1" as="geometry">
            <mxPoint x="185" y="260" as="sourcePoint" />
            <mxPoint x="65" y="260" as="targetPoint" />
          </mxGeometry>
        </mxCell>
        <mxCell id="QjpgvyxD9soHx6lmHtPM-31" value="UI / Frontend / Monitor" style="shape=umlLifeline;perimeter=lifelinePerimeter;whiteSpace=wrap;html=1;container=1;dropTarget=0;collapsible=0;recursiveResize=0;outlineConnect=0;portConstraint=eastwest;newEdgeStyle={&quot;curved&quot;:0,&quot;rounded&quot;:0};" parent="1" vertex="1">
          <mxGeometry x="740" y="180" width="100" height="540" as="geometry" />
        </mxCell>
        <mxCell id="QjpgvyxD9soHx6lmHtPM-38" style="edgeStyle=orthogonalEdgeStyle;rounded=0;orthogonalLoop=1;jettySize=auto;html=1;curved=0;" parent="1" target="QjpgvyxD9soHx6lmHtPM-3" edge="1">
          <mxGeometry relative="1" as="geometry">
            <mxPoint x="70" y="411" as="sourcePoint" />
            <mxPoint x="317.25" y="400" as="targetPoint" />
            <Array as="points">
              <mxPoint x="70" y="410" />
            </Array>
          </mxGeometry>
        </mxCell>
        <mxCell id="QjpgvyxD9soHx6lmHtPM-39" value="Capture Image or Video Stream" style="edgeLabel;html=1;align=center;verticalAlign=middle;resizable=0;points=[];" parent="QjpgvyxD9soHx6lmHtPM-38" vertex="1" connectable="0">
          <mxGeometry x="-0.5129" y="2" relative="1" as="geometry">
            <mxPoint x="72" y="-8" as="offset" />
          </mxGeometry>
        </mxCell>
        <mxCell id="QjpgvyxD9soHx6lmHtPM-41" style="edgeStyle=orthogonalEdgeStyle;rounded=0;orthogonalLoop=1;jettySize=auto;html=1;curved=0;" parent="1" target="QjpgvyxD9soHx6lmHtPM-7" edge="1">
          <mxGeometry relative="1" as="geometry">
            <mxPoint x="65" y="585" as="sourcePoint" />
            <mxPoint x="430" y="586" as="targetPoint" />
            <Array as="points">
              <mxPoint x="65" y="586" />
            </Array>
          </mxGeometry>
        </mxCell>
        <mxCell id="QjpgvyxD9soHx6lmHtPM-42" value="Control LED" style="edgeLabel;html=1;align=center;verticalAlign=middle;resizable=0;points=[];" parent="QjpgvyxD9soHx6lmHtPM-41" vertex="1" connectable="0">
          <mxGeometry x="-0.2288" y="1" relative="1" as="geometry">
            <mxPoint x="14" y="-14" as="offset" />
          </mxGeometry>
        </mxCell>
        <mxCell id="QjpgvyxD9soHx6lmHtPM-43" style="edgeStyle=orthogonalEdgeStyle;rounded=0;orthogonalLoop=1;jettySize=auto;html=1;curved=0;" parent="1" edge="1">
          <mxGeometry relative="1" as="geometry">
            <mxPoint x="65" y="620" as="sourcePoint" />
            <mxPoint x="560" y="620" as="targetPoint" />
          </mxGeometry>
        </mxCell>
        <mxCell id="QjpgvyxD9soHx6lmHtPM-44" value="Control Motor Close or Open" style="edgeLabel;html=1;align=center;verticalAlign=middle;resizable=0;points=[];" parent="QjpgvyxD9soHx6lmHtPM-43" vertex="1" connectable="0">
          <mxGeometry x="-0.1081" y="2" relative="1" as="geometry">
            <mxPoint y="-8" as="offset" />
          </mxGeometry>
        </mxCell>
        <mxCell id="3DTMF2_mr8N_eINxEJnW-1" value="LCD" style="shape=umlLifeline;perimeter=lifelinePerimeter;whiteSpace=wrap;html=1;container=1;dropTarget=0;collapsible=0;recursiveResize=0;outlineConnect=0;portConstraint=eastwest;newEdgeStyle={&quot;curved&quot;:0,&quot;rounded&quot;:0};" vertex="1" parent="1">
          <mxGeometry x="630" y="180" width="100" height="540" as="geometry" />
        </mxCell>
        <mxCell id="3DTMF2_mr8N_eINxEJnW-3" style="edgeStyle=orthogonalEdgeStyle;rounded=0;orthogonalLoop=1;jettySize=auto;html=1;curved=0;" edge="1" parent="1">
          <mxGeometry relative="1" as="geometry">
            <mxPoint x="65" y="660" as="sourcePoint" />
            <mxPoint x="680" y="660" as="targetPoint" />
          </mxGeometry>
        </mxCell>
        <mxCell id="3DTMF2_mr8N_eINxEJnW-4" value="display result on LCD" style="edgeLabel;html=1;align=center;verticalAlign=middle;resizable=0;points=[];" vertex="1" connectable="0" parent="3DTMF2_mr8N_eINxEJnW-3">
          <mxGeometry x="0.1782" y="1" relative="1" as="geometry">
            <mxPoint x="-97" y="-9" as="offset" />
          </mxGeometry>
        </mxCell>
      </root>
    </mxGraphModel>
  </diagram>
  <diagram id="dj8XRFqD-y6cjQ53Qm8I" name="component diagram">
    <mxGraphModel dx="1499" dy="1824" grid="1" gridSize="10" guides="1" tooltips="1" connect="1" arrows="1" fold="1" page="1" pageScale="1" pageWidth="827" pageHeight="1169" math="0" shadow="0">
      <root>
        <mxCell id="0" />
        <mxCell id="1" parent="0" />
        <mxCell id="Gmq6YplB2k_XXYcuNW31-27" style="edgeStyle=orthogonalEdgeStyle;rounded=0;orthogonalLoop=1;jettySize=auto;html=1;entryX=1;entryY=0.5;entryDx=0;entryDy=0;" parent="1" source="Gmq6YplB2k_XXYcuNW31-1" target="Gmq6YplB2k_XXYcuNW31-21" edge="1">
          <mxGeometry relative="1" as="geometry" />
        </mxCell>
        <mxCell id="Gmq6YplB2k_XXYcuNW31-28" value="Facial Mask Detection" style="edgeLabel;html=1;align=center;verticalAlign=middle;resizable=0;points=[];" parent="Gmq6YplB2k_XXYcuNW31-27" vertex="1" connectable="0">
          <mxGeometry x="0.5364" y="2" relative="1" as="geometry">
            <mxPoint x="28" y="-17" as="offset" />
          </mxGeometry>
        </mxCell>
        <mxCell id="Gmq6YplB2k_XXYcuNW31-34" style="edgeStyle=orthogonalEdgeStyle;rounded=0;orthogonalLoop=1;jettySize=auto;html=1;entryX=0.5;entryY=0;entryDx=0;entryDy=0;" parent="1" source="Gmq6YplB2k_XXYcuNW31-1" target="Gmq6YplB2k_XXYcuNW31-9" edge="1">
          <mxGeometry relative="1" as="geometry" />
        </mxCell>
        <mxCell id="Gmq6YplB2k_XXYcuNW31-35" value="Send processed Image data / video stream through" style="edgeLabel;html=1;align=center;verticalAlign=middle;resizable=0;points=[];" parent="Gmq6YplB2k_XXYcuNW31-34" vertex="1" connectable="0">
          <mxGeometry x="-0.1822" y="-4" relative="1" as="geometry">
            <mxPoint x="-129" y="49" as="offset" />
          </mxGeometry>
        </mxCell>
        <mxCell id="Gmq6YplB2k_XXYcuNW31-38" style="edgeStyle=orthogonalEdgeStyle;rounded=0;orthogonalLoop=1;jettySize=auto;html=1;entryX=0;entryY=0.5;entryDx=0;entryDy=0;" parent="1" source="Gmq6YplB2k_XXYcuNW31-1" target="Gmq6YplB2k_XXYcuNW31-5" edge="1">
          <mxGeometry relative="1" as="geometry" />
        </mxCell>
        <mxCell id="Gmq6YplB2k_XXYcuNW31-40" value="control" style="edgeLabel;html=1;align=center;verticalAlign=middle;resizable=0;points=[];" parent="Gmq6YplB2k_XXYcuNW31-38" vertex="1" connectable="0">
          <mxGeometry x="0.5707" y="2" relative="1" as="geometry">
            <mxPoint as="offset" />
          </mxGeometry>
        </mxCell>
        <mxCell id="X0ODIzSdIIpes_NhQevF-2" style="edgeStyle=orthogonalEdgeStyle;rounded=0;orthogonalLoop=1;jettySize=auto;html=1;entryX=0;entryY=0.5;entryDx=0;entryDy=0;" edge="1" parent="1" source="Gmq6YplB2k_XXYcuNW31-1" target="Gmq6YplB2k_XXYcuNW31-17">
          <mxGeometry relative="1" as="geometry" />
        </mxCell>
        <mxCell id="X0ODIzSdIIpes_NhQevF-3" value="control" style="edgeLabel;html=1;align=center;verticalAlign=middle;resizable=0;points=[];" vertex="1" connectable="0" parent="X0ODIzSdIIpes_NhQevF-2">
          <mxGeometry x="0.5242" y="3" relative="1" as="geometry">
            <mxPoint x="9" y="-2" as="offset" />
          </mxGeometry>
        </mxCell>
        <mxCell id="X0ODIzSdIIpes_NhQevF-4" style="edgeStyle=orthogonalEdgeStyle;rounded=0;orthogonalLoop=1;jettySize=auto;html=1;" edge="1" parent="1" source="Gmq6YplB2k_XXYcuNW31-1">
          <mxGeometry relative="1" as="geometry">
            <mxPoint x="450" y="380" as="targetPoint" />
          </mxGeometry>
        </mxCell>
        <mxCell id="X0ODIzSdIIpes_NhQevF-7" value="Display result" style="edgeLabel;html=1;align=center;verticalAlign=middle;resizable=0;points=[];" vertex="1" connectable="0" parent="X0ODIzSdIIpes_NhQevF-4">
          <mxGeometry x="0.6716" y="4" relative="1" as="geometry">
            <mxPoint x="40" as="offset" />
          </mxGeometry>
        </mxCell>
        <mxCell id="Gmq6YplB2k_XXYcuNW31-1" value="Raspberry Pi" style="html=1;dropTarget=0;whiteSpace=wrap;" parent="1" vertex="1">
          <mxGeometry x="270" y="160" width="180" height="90" as="geometry" />
        </mxCell>
        <mxCell id="Gmq6YplB2k_XXYcuNW31-2" value="" style="shape=module;jettyWidth=8;jettyHeight=4;" parent="Gmq6YplB2k_XXYcuNW31-1" vertex="1">
          <mxGeometry x="1" width="20" height="20" relative="1" as="geometry">
            <mxPoint x="-27" y="7" as="offset" />
          </mxGeometry>
        </mxCell>
        <mxCell id="Gmq6YplB2k_XXYcuNW31-3" value="Camera" style="html=1;dropTarget=0;whiteSpace=wrap;" parent="1" vertex="1">
          <mxGeometry x="160" y="-10" width="180" height="90" as="geometry" />
        </mxCell>
        <mxCell id="Gmq6YplB2k_XXYcuNW31-4" value="" style="shape=module;jettyWidth=8;jettyHeight=4;" parent="Gmq6YplB2k_XXYcuNW31-3" vertex="1">
          <mxGeometry x="1" width="20" height="20" relative="1" as="geometry">
            <mxPoint x="-27" y="7" as="offset" />
          </mxGeometry>
        </mxCell>
        <mxCell id="Gmq6YplB2k_XXYcuNW31-5" value="LED" style="html=1;dropTarget=0;whiteSpace=wrap;" parent="1" vertex="1">
          <mxGeometry x="600" y="110" width="180" height="90" as="geometry" />
        </mxCell>
        <mxCell id="Gmq6YplB2k_XXYcuNW31-6" value="" style="shape=module;jettyWidth=8;jettyHeight=4;" parent="Gmq6YplB2k_XXYcuNW31-5" vertex="1">
          <mxGeometry x="1" width="20" height="20" relative="1" as="geometry">
            <mxPoint x="-27" y="7" as="offset" />
          </mxGeometry>
        </mxCell>
        <mxCell id="Gmq6YplB2k_XXYcuNW31-7" value="IR sensor" style="html=1;dropTarget=0;whiteSpace=wrap;" parent="1" vertex="1">
          <mxGeometry x="370" y="-10" width="180" height="90" as="geometry" />
        </mxCell>
        <mxCell id="Gmq6YplB2k_XXYcuNW31-8" value="" style="shape=module;jettyWidth=8;jettyHeight=4;" parent="Gmq6YplB2k_XXYcuNW31-7" vertex="1">
          <mxGeometry x="1" width="20" height="20" relative="1" as="geometry">
            <mxPoint x="-27" y="7" as="offset" />
          </mxGeometry>
        </mxCell>
        <mxCell id="Gmq6YplB2k_XXYcuNW31-9" value="UI / frontend" style="html=1;dropTarget=0;whiteSpace=wrap;" parent="1" vertex="1">
          <mxGeometry x="180" y="380" width="180" height="90" as="geometry" />
        </mxCell>
        <mxCell id="Gmq6YplB2k_XXYcuNW31-10" value="" style="shape=module;jettyWidth=8;jettyHeight=4;" parent="Gmq6YplB2k_XXYcuNW31-9" vertex="1">
          <mxGeometry x="1" width="20" height="20" relative="1" as="geometry">
            <mxPoint x="-27" y="7" as="offset" />
          </mxGeometry>
        </mxCell>
        <mxCell id="Gmq6YplB2k_XXYcuNW31-17" value="Motor" style="html=1;dropTarget=0;whiteSpace=wrap;" parent="1" vertex="1">
          <mxGeometry x="600" y="220" width="180" height="90" as="geometry" />
        </mxCell>
        <mxCell id="Gmq6YplB2k_XXYcuNW31-18" value="" style="shape=module;jettyWidth=8;jettyHeight=4;" parent="Gmq6YplB2k_XXYcuNW31-17" vertex="1">
          <mxGeometry x="1" width="20" height="20" relative="1" as="geometry">
            <mxPoint x="-27" y="7" as="offset" />
          </mxGeometry>
        </mxCell>
        <mxCell id="Gmq6YplB2k_XXYcuNW31-19" value="OpenCV" style="html=1;dropTarget=0;whiteSpace=wrap;" parent="1" vertex="1">
          <mxGeometry y="240" width="180" height="90" as="geometry" />
        </mxCell>
        <mxCell id="Gmq6YplB2k_XXYcuNW31-20" value="" style="shape=module;jettyWidth=8;jettyHeight=4;" parent="Gmq6YplB2k_XXYcuNW31-19" vertex="1">
          <mxGeometry x="1" width="20" height="20" relative="1" as="geometry">
            <mxPoint x="-27" y="7" as="offset" />
          </mxGeometry>
        </mxCell>
        <mxCell id="Gmq6YplB2k_XXYcuNW31-29" style="edgeStyle=orthogonalEdgeStyle;rounded=0;orthogonalLoop=1;jettySize=auto;html=1;" parent="1" source="Gmq6YplB2k_XXYcuNW31-21" target="Gmq6YplB2k_XXYcuNW31-19" edge="1">
          <mxGeometry relative="1" as="geometry" />
        </mxCell>
        <mxCell id="Gmq6YplB2k_XXYcuNW31-30" value="Image process, add recognized area" style="edgeLabel;html=1;align=center;verticalAlign=middle;resizable=0;points=[];" parent="Gmq6YplB2k_XXYcuNW31-29" vertex="1" connectable="0">
          <mxGeometry x="-0.2317" relative="1" as="geometry">
            <mxPoint as="offset" />
          </mxGeometry>
        </mxCell>
        <mxCell id="Gmq6YplB2k_XXYcuNW31-21" value="CNN" style="html=1;dropTarget=0;whiteSpace=wrap;" parent="1" vertex="1">
          <mxGeometry y="110" width="180" height="90" as="geometry" />
        </mxCell>
        <mxCell id="Gmq6YplB2k_XXYcuNW31-22" value="" style="shape=module;jettyWidth=8;jettyHeight=4;" parent="Gmq6YplB2k_XXYcuNW31-21" vertex="1">
          <mxGeometry x="1" width="20" height="20" relative="1" as="geometry">
            <mxPoint x="-27" y="7" as="offset" />
          </mxGeometry>
        </mxCell>
        <mxCell id="Gmq6YplB2k_XXYcuNW31-23" style="edgeStyle=orthogonalEdgeStyle;rounded=0;orthogonalLoop=1;jettySize=auto;html=1;entryX=0.644;entryY=1.025;entryDx=0;entryDy=0;entryPerimeter=0;" parent="1" source="Gmq6YplB2k_XXYcuNW31-1" target="Gmq6YplB2k_XXYcuNW31-3" edge="1">
          <mxGeometry relative="1" as="geometry" />
        </mxCell>
        <mxCell id="Gmq6YplB2k_XXYcuNW31-26" value="Capture" style="edgeLabel;html=1;align=center;verticalAlign=middle;resizable=0;points=[];" parent="Gmq6YplB2k_XXYcuNW31-23" vertex="1" connectable="0">
          <mxGeometry x="0.2933" relative="1" as="geometry">
            <mxPoint x="15" y="-10" as="offset" />
          </mxGeometry>
        </mxCell>
        <mxCell id="Gmq6YplB2k_XXYcuNW31-24" style="edgeStyle=orthogonalEdgeStyle;rounded=0;orthogonalLoop=1;jettySize=auto;html=1;entryX=0.378;entryY=1.008;entryDx=0;entryDy=0;entryPerimeter=0;" parent="1" source="Gmq6YplB2k_XXYcuNW31-1" target="Gmq6YplB2k_XXYcuNW31-7" edge="1">
          <mxGeometry relative="1" as="geometry" />
        </mxCell>
        <mxCell id="Gmq6YplB2k_XXYcuNW31-25" value="Read" style="edgeLabel;html=1;align=center;verticalAlign=middle;resizable=0;points=[];" parent="Gmq6YplB2k_XXYcuNW31-24" vertex="1" connectable="0">
          <mxGeometry x="0.0312" y="1" relative="1" as="geometry">
            <mxPoint y="-9" as="offset" />
          </mxGeometry>
        </mxCell>
        <mxCell id="Gmq6YplB2k_XXYcuNW31-33" style="edgeStyle=orthogonalEdgeStyle;rounded=0;orthogonalLoop=1;jettySize=auto;html=1;entryX=0.003;entryY=0.882;entryDx=0;entryDy=0;entryPerimeter=0;" parent="1" source="Gmq6YplB2k_XXYcuNW31-19" target="Gmq6YplB2k_XXYcuNW31-1" edge="1">
          <mxGeometry relative="1" as="geometry" />
        </mxCell>
        <mxCell id="X0ODIzSdIIpes_NhQevF-5" value="LCD" style="html=1;dropTarget=0;whiteSpace=wrap;" vertex="1" parent="1">
          <mxGeometry x="400" y="380" width="180" height="90" as="geometry" />
        </mxCell>
        <mxCell id="X0ODIzSdIIpes_NhQevF-6" value="" style="shape=module;jettyWidth=8;jettyHeight=4;" vertex="1" parent="X0ODIzSdIIpes_NhQevF-5">
          <mxGeometry x="1" width="20" height="20" relative="1" as="geometry">
            <mxPoint x="-27" y="7" as="offset" />
          </mxGeometry>
        </mxCell>
      </root>
    </mxGraphModel>
  </diagram>
  <diagram id="KR3_7UHlFYzC7LTaU2YQ" name="status diagram">
    <mxGraphModel dx="1249" dy="546" grid="1" gridSize="10" guides="1" tooltips="1" connect="1" arrows="1" fold="1" page="1" pageScale="1" pageWidth="827" pageHeight="1169" math="0" shadow="0">
      <root>
        <mxCell id="0" />
        <mxCell id="1" parent="0" />
        <mxCell id="LtVpQhGH5DXBJA70SW93-1" value="temp normal?" style="rhombus;whiteSpace=wrap;html=1;fontColor=#000000;fillColor=#ffffc0;strokeColor=#ff0000;" parent="1" vertex="1">
          <mxGeometry x="300" y="310" width="120" height="60" as="geometry" />
        </mxCell>
        <mxCell id="LtVpQhGH5DXBJA70SW93-2" value="no" style="edgeStyle=orthogonalEdgeStyle;html=1;align=left;verticalAlign=bottom;endArrow=open;endSize=8;strokeColor=#ff0000;rounded=0;entryX=0.5;entryY=0;entryDx=0;entryDy=0;" parent="1" source="LtVpQhGH5DXBJA70SW93-1" target="LtVpQhGH5DXBJA70SW93-14" edge="1">
          <mxGeometry x="-1" relative="1" as="geometry">
            <mxPoint x="510" y="340" as="targetPoint" />
            <Array as="points">
              <mxPoint x="570" y="340" />
            </Array>
          </mxGeometry>
        </mxCell>
        <mxCell id="LtVpQhGH5DXBJA70SW93-3" value="yes" style="edgeStyle=orthogonalEdgeStyle;html=1;align=left;verticalAlign=top;endArrow=open;endSize=8;strokeColor=#ff0000;rounded=0;" parent="1" source="LtVpQhGH5DXBJA70SW93-1" edge="1">
          <mxGeometry x="-1" relative="1" as="geometry">
            <mxPoint x="360" y="410" as="targetPoint" />
          </mxGeometry>
        </mxCell>
        <mxCell id="LtVpQhGH5DXBJA70SW93-10" value="" style="ellipse;html=1;shape=startState;fillColor=#000000;strokeColor=#ff0000;" parent="1" vertex="1">
          <mxGeometry x="345" y="130" width="30" height="30" as="geometry" />
        </mxCell>
        <mxCell id="LtVpQhGH5DXBJA70SW93-11" value="" style="edgeStyle=orthogonalEdgeStyle;html=1;verticalAlign=bottom;endArrow=open;endSize=8;strokeColor=#ff0000;rounded=0;" parent="1" source="LtVpQhGH5DXBJA70SW93-10" edge="1">
          <mxGeometry relative="1" as="geometry">
            <mxPoint x="360" y="310" as="targetPoint" />
          </mxGeometry>
        </mxCell>
        <mxCell id="LtVpQhGH5DXBJA70SW93-12" value="Init" style="edgeLabel;html=1;align=center;verticalAlign=middle;resizable=0;points=[];" parent="LtVpQhGH5DXBJA70SW93-11" vertex="1" connectable="0">
          <mxGeometry x="-0.3368" y="-3" relative="1" as="geometry">
            <mxPoint x="-12" y="-30" as="offset" />
          </mxGeometry>
        </mxCell>
        <mxCell id="LtVpQhGH5DXBJA70SW93-16" style="edgeStyle=orthogonalEdgeStyle;rounded=0;orthogonalLoop=1;jettySize=auto;html=1;entryX=0.5;entryY=0;entryDx=0;entryDy=0;exitX=1;exitY=0.5;exitDx=0;exitDy=0;" parent="1" source="LtVpQhGH5DXBJA70SW93-42" target="LtVpQhGH5DXBJA70SW93-1" edge="1">
          <mxGeometry relative="1" as="geometry">
            <Array as="points">
              <mxPoint x="220" y="790" />
              <mxPoint x="220" y="190" />
              <mxPoint x="360" y="190" />
            </Array>
          </mxGeometry>
        </mxCell>
        <mxCell id="LtVpQhGH5DXBJA70SW93-17" value="Loop&amp;nbsp;" style="edgeLabel;html=1;align=center;verticalAlign=middle;resizable=0;points=[];" parent="LtVpQhGH5DXBJA70SW93-16" vertex="1" connectable="0">
          <mxGeometry x="0.1086" y="2" relative="1" as="geometry">
            <mxPoint x="2" y="347" as="offset" />
          </mxGeometry>
        </mxCell>
        <mxCell id="LtVpQhGH5DXBJA70SW93-14" value="Set Result : Not allow" style="rounded=1;whiteSpace=wrap;html=1;arcSize=40;fontColor=#000000;fillColor=#ffffc0;strokeColor=#ff0000;" parent="1" vertex="1">
          <mxGeometry x="510" y="510" width="120" height="40" as="geometry" />
        </mxCell>
        <mxCell id="LtVpQhGH5DXBJA70SW93-28" style="edgeStyle=orthogonalEdgeStyle;rounded=0;orthogonalLoop=1;jettySize=auto;html=1;" parent="1" source="LtVpQhGH5DXBJA70SW93-23" edge="1">
          <mxGeometry relative="1" as="geometry">
            <mxPoint x="510" y="530" as="targetPoint" />
          </mxGeometry>
        </mxCell>
        <mxCell id="LtVpQhGH5DXBJA70SW93-29" value="without mask" style="edgeLabel;html=1;align=center;verticalAlign=middle;resizable=0;points=[];" parent="LtVpQhGH5DXBJA70SW93-28" vertex="1" connectable="0">
          <mxGeometry x="-0.2237" y="1" relative="1" as="geometry">
            <mxPoint y="-9" as="offset" />
          </mxGeometry>
        </mxCell>
        <mxCell id="LtVpQhGH5DXBJA70SW93-30" style="edgeStyle=orthogonalEdgeStyle;rounded=0;orthogonalLoop=1;jettySize=auto;html=1;" parent="1" source="LtVpQhGH5DXBJA70SW93-23" edge="1">
          <mxGeometry relative="1" as="geometry">
            <mxPoint x="360" y="610" as="targetPoint" />
          </mxGeometry>
        </mxCell>
        <mxCell id="LtVpQhGH5DXBJA70SW93-31" value="with mask" style="edgeLabel;html=1;align=center;verticalAlign=middle;resizable=0;points=[];" parent="LtVpQhGH5DXBJA70SW93-30" vertex="1" connectable="0">
          <mxGeometry x="-0.4012" relative="1" as="geometry">
            <mxPoint as="offset" />
          </mxGeometry>
        </mxCell>
        <mxCell id="LtVpQhGH5DXBJA70SW93-23" value="CNN: Mask Detection" style="rhombus;whiteSpace=wrap;html=1;fontColor=#000000;fillColor=#ffffc0;strokeColor=#ff0000;" parent="1" vertex="1">
          <mxGeometry x="285" y="500" width="150" height="60" as="geometry" />
        </mxCell>
        <mxCell id="LtVpQhGH5DXBJA70SW93-24" value="Read IR sensor" style="rounded=1;whiteSpace=wrap;html=1;arcSize=40;fontColor=#000000;fillColor=#ffffc0;strokeColor=#ff0000;" parent="1" vertex="1">
          <mxGeometry x="300" y="210" width="120" height="40" as="geometry" />
        </mxCell>
        <mxCell id="LtVpQhGH5DXBJA70SW93-27" style="edgeStyle=orthogonalEdgeStyle;rounded=0;orthogonalLoop=1;jettySize=auto;html=1;entryX=0.5;entryY=0;entryDx=0;entryDy=0;" parent="1" source="LtVpQhGH5DXBJA70SW93-25" target="LtVpQhGH5DXBJA70SW93-23" edge="1">
          <mxGeometry relative="1" as="geometry" />
        </mxCell>
        <mxCell id="LtVpQhGH5DXBJA70SW93-25" value="Camera Capture" style="rounded=1;whiteSpace=wrap;html=1;arcSize=40;fontColor=#000000;fillColor=#ffffc0;strokeColor=#ff0000;" parent="1" vertex="1">
          <mxGeometry x="300" y="410" width="120" height="40" as="geometry" />
        </mxCell>
        <mxCell id="2Hpf3S1szmg2E_6xbLoZ-3" style="edgeStyle=orthogonalEdgeStyle;rounded=0;orthogonalLoop=1;jettySize=auto;html=1;entryX=0.463;entryY=-0.059;entryDx=0;entryDy=0;entryPerimeter=0;" edge="1" parent="1" source="LtVpQhGH5DXBJA70SW93-26" target="2Hpf3S1szmg2E_6xbLoZ-4">
          <mxGeometry relative="1" as="geometry">
            <mxPoint x="665" y="660" as="targetPoint" />
            <Array as="points">
              <mxPoint x="645" y="630" />
            </Array>
          </mxGeometry>
        </mxCell>
        <mxCell id="TdIwlVD4yrhpPS2pwwnl-1" style="edgeStyle=orthogonalEdgeStyle;rounded=0;orthogonalLoop=1;jettySize=auto;html=1;" edge="1" parent="1">
          <mxGeometry relative="1" as="geometry">
            <mxPoint x="784" y="690" as="targetPoint" />
            <mxPoint x="414" y="630" as="sourcePoint" />
          </mxGeometry>
        </mxCell>
        <mxCell id="TdIwlVD4yrhpPS2pwwnl-7" style="edgeStyle=orthogonalEdgeStyle;rounded=0;orthogonalLoop=1;jettySize=auto;html=1;entryX=0.5;entryY=0;entryDx=0;entryDy=0;" edge="1" parent="1" source="LtVpQhGH5DXBJA70SW93-26" target="TdIwlVD4yrhpPS2pwwnl-5">
          <mxGeometry relative="1" as="geometry" />
        </mxCell>
        <mxCell id="LtVpQhGH5DXBJA70SW93-26" value="Set Result : Allow pass" style="rounded=1;whiteSpace=wrap;html=1;arcSize=40;fontColor=#000000;fillColor=#ffffc0;strokeColor=#ff0000;" parent="1" vertex="1">
          <mxGeometry x="290" y="610" width="140" height="40" as="geometry" />
        </mxCell>
        <mxCell id="LtVpQhGH5DXBJA70SW93-39" style="edgeStyle=orthogonalEdgeStyle;rounded=0;orthogonalLoop=1;jettySize=auto;html=1;entryX=0.5;entryY=0;entryDx=0;entryDy=0;" parent="1" source="LtVpQhGH5DXBJA70SW93-41" target="LtVpQhGH5DXBJA70SW93-42" edge="1">
          <mxGeometry relative="1" as="geometry" />
        </mxCell>
        <mxCell id="LtVpQhGH5DXBJA70SW93-40" value="Data transmission" style="edgeLabel;html=1;align=center;verticalAlign=middle;resizable=0;points=[];" parent="LtVpQhGH5DXBJA70SW93-39" vertex="1" connectable="0">
          <mxGeometry x="-0.1627" y="1" relative="1" as="geometry">
            <mxPoint as="offset" />
          </mxGeometry>
        </mxCell>
        <mxCell id="LtVpQhGH5DXBJA70SW93-41" value="OpenCV process Images / Videos" style="rounded=1;whiteSpace=wrap;html=1;arcSize=40;fontColor=#000000;fillColor=#ffffc0;strokeColor=#ff0000;" parent="1" vertex="1">
          <mxGeometry x="430" y="690" width="120" height="40" as="geometry" />
        </mxCell>
        <mxCell id="LtVpQhGH5DXBJA70SW93-45" style="edgeStyle=orthogonalEdgeStyle;rounded=0;orthogonalLoop=1;jettySize=auto;html=1;" parent="1" source="LtVpQhGH5DXBJA70SW93-42" edge="1">
          <mxGeometry relative="1" as="geometry">
            <mxPoint x="490" y="860" as="targetPoint" />
          </mxGeometry>
        </mxCell>
        <mxCell id="LtVpQhGH5DXBJA70SW93-42" value="send data through wifi" style="rounded=1;whiteSpace=wrap;html=1;arcSize=40;fontColor=#000000;fillColor=#ffffc0;strokeColor=#ff0000;" parent="1" vertex="1">
          <mxGeometry x="430" y="770" width="120" height="40" as="geometry" />
        </mxCell>
        <mxCell id="LtVpQhGH5DXBJA70SW93-44" style="edgeStyle=orthogonalEdgeStyle;rounded=0;orthogonalLoop=1;jettySize=auto;html=1;entryX=0.553;entryY=0.023;entryDx=0;entryDy=0;entryPerimeter=0;exitX=1.007;exitY=0.399;exitDx=0;exitDy=0;exitPerimeter=0;" parent="1" source="LtVpQhGH5DXBJA70SW93-26" target="LtVpQhGH5DXBJA70SW93-41" edge="1">
          <mxGeometry relative="1" as="geometry">
            <Array as="points">
              <mxPoint x="431" y="630" />
              <mxPoint x="496" y="630" />
            </Array>
          </mxGeometry>
        </mxCell>
        <mxCell id="LtVpQhGH5DXBJA70SW93-46" value="Display result on UI" style="rounded=1;whiteSpace=wrap;html=1;arcSize=40;fontColor=#000000;fillColor=#ffffc0;strokeColor=#ff0000;" parent="1" vertex="1">
          <mxGeometry x="430" y="860" width="120" height="40" as="geometry" />
        </mxCell>
        <mxCell id="2Hpf3S1szmg2E_6xbLoZ-2" style="edgeStyle=orthogonalEdgeStyle;rounded=0;orthogonalLoop=1;jettySize=auto;html=1;entryX=0.56;entryY=0.073;entryDx=0;entryDy=0;entryPerimeter=0;" edge="1" parent="1" source="LtVpQhGH5DXBJA70SW93-14" target="LtVpQhGH5DXBJA70SW93-41">
          <mxGeometry relative="1" as="geometry">
            <Array as="points">
              <mxPoint x="570" y="630" />
              <mxPoint x="497" y="630" />
            </Array>
          </mxGeometry>
        </mxCell>
        <mxCell id="2Hpf3S1szmg2E_6xbLoZ-4" value="display result on LCD" style="rounded=1;whiteSpace=wrap;html=1;arcSize=40;fontColor=#000000;fillColor=#ffffc0;strokeColor=#ff0000;" vertex="1" parent="1">
          <mxGeometry x="580" y="690" width="140" height="40" as="geometry" />
        </mxCell>
        <mxCell id="TdIwlVD4yrhpPS2pwwnl-2" value="Control gate" style="rounded=1;whiteSpace=wrap;html=1;arcSize=40;fontColor=#000000;fillColor=#ffffc0;strokeColor=#ff0000;" vertex="1" parent="1">
          <mxGeometry x="730" y="690" width="100" height="40" as="geometry" />
        </mxCell>
        <mxCell id="TdIwlVD4yrhpPS2pwwnl-5" value="Control LED" style="rounded=1;whiteSpace=wrap;html=1;arcSize=40;fontColor=#000000;fillColor=#ffffc0;strokeColor=#ff0000;" vertex="1" parent="1">
          <mxGeometry x="840" y="690" width="100" height="40" as="geometry" />
        </mxCell>
      </root>
    </mxGraphModel>
  </diagram>
</mxfile>
